<?xml version="1.0" encoding="UTF-8" standalone="no"?>
<!-- Created with Inkscape (http://www.inkscape.org/) -->

<svg
   width="200"
   height="200"
   viewBox="0 0 52.916666 52.916666"
   version="1.1"
   id="svg1"
   inkscape:version="1.4 (e7c3feb1, 2024-10-09)"
   sodipodi:docname="emoji-grid-2.svg"
   xml:space="preserve"
   xmlns:inkscape="http://www.inkscape.org/namespaces/inkscape"
   xmlns:sodipodi="http://sodipodi.sourceforge.net/DTD/sodipodi-0.dtd"
   xmlns="http://www.w3.org/2000/svg"
   xmlns:svg="http://www.w3.org/2000/svg"><sodipodi:namedview
     id="namedview1"
     pagecolor="#ffffff"
     bordercolor="#000000"
     borderopacity="0.25"
     inkscape:showpageshadow="2"
     inkscape:pageopacity="0.0"
     inkscape:pagecheckerboard="0"
     inkscape:deskcolor="#d1d1d1"
     inkscape:document-units="px"
     showgrid="false"
     inkscape:zoom="2.0107409"
     inkscape:cx="102.94713"
     inkscape:cy="105.9311"
     inkscape:window-width="1680"
     inkscape:window-height="997"
     inkscape:window-x="0"
     inkscape:window-y="25"
     inkscape:window-maximized="0"
     inkscape:current-layer="layer1" /><defs
     id="defs1" /><g
     inkscape:label="Layer 1"
     inkscape:groupmode="layer"
     id="layer1"><g
       id="g5"
       style="display:none"><rect
         style="opacity:0.119247;fill:#86dfff;stroke-width:5.29167;paint-order:markers stroke fill"
         id="rect2"
         width="26.458332"
         height="26.458334"
         x="0"
         y="-1.5258428e-15" /><rect
         style="opacity:0.119247;fill:#035f78;fill-opacity:1;stroke-width:5.29167;paint-order:markers stroke fill"
         id="rect3"
         width="26.458332"
         height="26.458334"
         x="26.458332"
         y="-1.5258428e-15" /><rect
         style="opacity:0.119247;fill:#670a71;fill-opacity:1;stroke-width:5.29167;paint-order:markers stroke fill"
         id="rect4"
         width="26.458332"
         height="26.458334"
         x="39.6875"
         y="26.458332" /><rect
         style="display:inline;opacity:0.119247;fill:#42ee82;fill-opacity:1;stroke-width:5.29167;paint-order:markers stroke fill"
         id="rect5"
         width="26.458332"
         height="26.458334"
         x="13.229166"
         y="26.458332" /><rect
         style="display:inline;opacity:0.119247;fill:#42ee82;fill-opacity:1;stroke-width:5.29167;paint-order:markers stroke fill"
         id="rect6"
         width="26.458332"
         height="26.458334"
         x="66.145836"
         y="26.458332" /><rect
         style="opacity:0.119247;fill:#670a71;fill-opacity:1;stroke-width:5.29167;paint-order:markers stroke fill"
         id="rect7"
         width="26.458332"
         height="26.458334"
         x="-13.229166"
         y="26.458332" /><rect
         style="opacity:0.119247;fill:#86dfff;stroke-width:5.29167;paint-order:markers stroke fill"
         id="rect8"
         width="26.458332"
         height="26.458334"
         x="52.916664"
         y="-1.5258428e-15" /></g><g
       id="g1"
       style="opacity:1"><path
         d="m 56.821285,48.025882 q -0.897981,0 -1.840056,-0.296653 -0.942077,-0.296654 -1.992394,-0.561239 -0.665466,-0.168371 -1.238732,-0.288638 -0.573264,-0.12026 -1.126484,-0.29665 -0.553218,-0.17639 -1.178598,-0.521153 -1.643625,-0.914014 -2.501513,-2.341161 -0.857893,-1.427146 -0.857893,-3.094823 V 39.91199 h 0.641412 v 0.713575 q 0,1.523358 0.79776,2.778123 0.797759,1.254769 2.176799,2.064557 0.593309,0.344758 1.186617,0.525154 0.593308,0.180399 1.194634,0.300664 0.601328,0.12026 1.210671,0.288639 0.59331,0.16035 1.258773,0.352775 0.665468,0.192424 1.270803,0.328724 0.605333,0.136304 0.998201,0.136304 1.346972,0 2.104641,-0.749654 0.757669,-0.749652 0.757669,-2.056533 0,-0.489078 -0.108234,-1.038289 -0.108234,-0.549213 -0.224496,-1.062343 -0.116256,-0.513133 -0.156348,-0.881946 -0.04008,-0.44097 -0.02003,-0.745644 0.02003,-0.304669 0.06013,-0.645424 0.04008,-0.34075 0.04008,-0.869918 0,-1.579481 -0.737627,-2.830238 -0.737624,-1.250759 -2.052526,-2.016446 -1.314899,-0.765689 -3.04672,-0.869919 l 0.04008,-0.641414 q 1.395078,0.0882 2.573676,0.5893 1.178597,0.501104 2.044509,1.346968 0.865908,0.845866 1.342958,1.96834 0.477054,1.122477 0.477054,2.453409 0,0.649434 -0.06815,1.122478 -0.06815,0.473041 -0.01204,1.082386 0.06415,0.68952 0.276609,1.451198 0.212467,0.761679 0.212467,1.587502 0,1.579482 -0.950094,2.505524 -0.950094,0.926042 -2.553628,0.926042 z m -7.215909,-4.321528 q -0.248549,0 -0.505113,-0.232514 -0.25657,-0.232512 -0.25657,-0.448989 0,-0.136304 0.09622,-0.224496 0.09621,-0.08819 0.232515,-0.08819 0.248546,0 0.505114,0.232515 0.256564,0.232509 0.256564,0.44899 0,0.128282 -0.09621,0.220484 -0.09621,0.0922 -0.23251,0.0922 z m 2.405302,1.042297 q -0.248546,0 -0.505112,-0.232513 -0.256568,-0.232511 -0.256568,-0.44899 0,-0.136304 0.09622,-0.224494 0.09621,-0.08819 0.232512,-0.08819 0.248548,0 0.505113,0.232514 0.256568,0.232512 0.256568,0.44899 0,0.128282 -0.09622,0.220486 -0.09621,0.0922 -0.232513,0.0922 z m 3.69615,1.002208 q -0.288636,0 -0.452998,-0.100212 -0.164365,-0.100212 -0.164365,-0.276609 0,-0.17639 0.164365,-0.276609 0.164362,-0.100212 0.452998,-0.100212 0.288636,0 0.452999,0.100212 0.16436,0.100212 0.16436,0.276609 0,0.176389 -0.16436,0.276609 -0.164363,0.100212 -0.452999,0.100212 z m -3.295267,-3.888573 q -0.248545,0 -0.505115,-0.232513 -0.256564,-0.232511 -0.256564,-0.448988 0,-0.136304 0.09622,-0.224495 0.09621,-0.08819 0.232511,-0.08819 0.248549,0 0.505113,0.232514 0.25657,0.23251 0.25657,0.448988 0,0.128282 -0.09622,0.220486 -0.09621,0.0922 -0.232515,0.09219 z m 2.934473,1.082388 q -0.21648,0 -0.457009,-0.260574 -0.24053,-0.260575 -0.24053,-0.501104 0,-0.136304 0.0922,-0.224497 0.0922,-0.08819 0.22049,-0.08819 0.216475,0 0.457008,0.26057 0.240529,0.260575 0.240529,0.501104 0,0.128282 -0.08819,0.220486 -0.0882,0.0922 -0.224495,0.0922 z m -6.350001,-1.042297 q -0.09622,0 -0.28463,-0.172379 -0.188415,-0.172381 -0.388857,-0.448994 -0.200441,-0.276608 -0.34476,-0.585289 -0.144316,-0.30868 -0.144316,-0.581282 v -0.48106 q -0.09622,0.12026 -0.220489,0.252557 -0.124278,0.132286 -0.260575,0.212467 -0.200439,0.12026 -0.44899,0.196434 -0.248547,0.07617 -0.577273,0.23652 -0.216475,0.10423 -0.336742,0.228504 -0.12026,0.124278 -0.232512,0.124278 -0.176389,0 -0.212468,-0.212468 -0.03608,-0.212467 -0.03608,-0.412909 0,-0.745644 0.272602,-1.631598 0.272601,-0.885952 0.749651,-1.767896 0.477053,-0.881947 1.078377,-1.595521 -0.537183,-0.521149 -0.813794,-1.158552 -0.276609,-0.637408 -0.276609,-1.334944 0,-0.304673 0.03206,-0.589302 0.03206,-0.284625 0.0481,-0.356785 0.01603,-0.06415 0.156347,-0.176389 0.140305,-0.112252 0.320703,-0.204451 0.1804,-0.0922 0.3167,-0.0922 0.184406,0 0.224495,0.04008 0.04008,0.04008 0.0481,0.10423 0.01603,0.152336 0,0.412911 -0.01603,0.260575 -0.01603,0.533177 0,0.617361 0.264585,1.122474 0.264583,0.505114 0.809784,0.633398 0.954105,-0.769699 2.048518,-1.182608 1.094413,-0.412912 2.256976,-0.412912 0.424938,0 0.86591,0.03206 0.440972,0.03207 0.745643,0.116256 0.304672,0.08418 0.304672,0.236519 0,0.152335 -0.220486,0.408903 -0.220486,0.256566 -0.541193,0.529165 -0.320699,0.272604 -0.645415,0.489079 -0.324717,0.216479 -0.541192,0.304674 0.184403,0.05613 0.517139,0.264582 0.332732,0.208458 0.681503,0.481061 0.348769,0.272601 0.589298,0.51714 0.240531,0.244539 0.240531,0.380839 0,0.232515 -0.288637,0.412909 -0.288636,0.180399 -0.733617,0.28062 -0.44498,0.100212 -0.910008,0.100212 -0.128282,0 -0.248548,-0.0081 -0.12026,-0.008 -0.232512,-0.03206 0.16837,0.368814 0.276611,0.958113 0.108234,0.589299 0.108234,1.078378 0,0.200439 -0.01603,0.364803 -0.01603,0.164362 -0.09622,0.228506 -0.192426,0.144314 -0.577275,0.144314 -0.368809,0 -0.805774,-0.10423 -0.436964,-0.10423 -0.809786,-0.244539 -0.372822,-0.140309 -0.549211,-0.260575 0,0.681505 -0.216477,1.278823 -0.216477,0.597317 -0.48507,0.970138 -0.268591,0.372822 -0.44498,0.372822 z m 8.915655,1.820011 q -0.192423,0 -0.364803,-0.252554 -0.17238,-0.252559 -0.17238,-0.549215 0,-0.168369 0.0922,-0.276608 0.0922,-0.108234 0.220484,-0.108234 0.192425,0 0.364804,0.252558 0.172381,0.252554 0.172381,0.54921 0,0.168374 -0.0882,0.276609 -0.0882,0.108234 -0.224496,0.108234 z M 55.00929,39.527143 q -0.200441,0 -0.420929,-0.268591 -0.220485,-0.268593 -0.220485,-0.533178 0,-0.152334 0.0882,-0.244538 0.0882,-0.0922 0.216475,-0.0922 0.208459,0 0.424938,0.268589 0.216479,0.268594 0.216479,0.533176 0,0.152338 -0.0842,0.244539 -0.0842,0.0922 -0.220485,0.0922 z m 2.613764,0.432954 q -0.184408,0 -0.320709,-0.220486 -0.136304,-0.220484 -0.136304,-0.525158 0,-0.208459 0.09622,-0.332734 0.09621,-0.124278 0.248546,-0.124278 0.184408,0 0.320708,0.220489 0.136304,0.220486 0.136304,0.525155 0,0.20846 -0.0922,0.332734 -0.0922,0.124278 -0.252556,0.124278 z m -1.226707,-3.431566 q -0.224494,0 -0.461016,-0.252556 -0.236523,-0.252559 -0.236523,-0.501105 0,-0.136304 0.0922,-0.228504 0.0922,-0.0922 0.220486,-0.0922 0.224499,0 0.461018,0.252559 0.236521,0.252556 0.236521,0.501103 0,0.128282 -0.0882,0.224494 -0.08819,0.09621 -0.224495,0.09621 z"
         id="path1"
         style="fill:#f26e95;fill-opacity:1;stroke-width:0.185207" /><path
         d="m 25.070166,47.167755 q -1.352198,0 -2.459856,-0.438743 Q 21.502661,46.29026 20.707881,45.481099 19.913107,44.671941 19.48155,43.546302 19.05,42.420666 19.05,41.046888 q 0,-1.050109 0.291295,-1.970758 0.291304,-0.920648 0.873902,-1.73341 0.48909,-0.683292 1.190363,-1.165189 0.701273,-0.481905 1.514034,-0.848722 0.81276,-0.366822 1.639901,-0.690486 0.827148,-0.323663 1.560788,-0.690485 l 1.07169,-0.532252 q 1.294658,-0.640133 2.136193,-0.924241 0.841527,-0.284102 1.438505,-0.284102 0.935035,0 1.632715,0.381203 0.697672,0.381203 1.082476,1.068097 0.384804,0.686884 0.384804,1.621919 0,0.568213 -0.169028,1.190364 -0.169022,0.62216 -0.528651,1.39176 l -0.230163,0.489098 q -0.273316,0.582599 -0.409977,1.096864 -0.136654,0.514262 -0.248142,1.053707 -0.111482,0.539445 -0.298489,1.193965 -0.187008,0.654525 -0.568211,1.532014 -0.525058,1.215545 -1.47088,2.100224 -0.945823,0.884688 -2.190133,1.362993 -1.244312,0.478304 -2.682826,0.478304 z m -1.380965,-6.68908 q 0.129458,0 0.204979,-0.107884 0.07553,-0.107884 0.07553,-0.266112 0,-0.402782 0.230163,-0.71566 0.230163,-0.312875 0.517859,-0.427958 0.201395,-0.07193 0.201395,-0.280506 0,-0.258944 -0.294896,-0.258944 -0.266123,0 -0.553826,0.258944 -0.287702,0.258916 -0.485497,0.632945 -0.197795,0.37401 -0.197795,0.726446 0,0.438743 0.302089,0.438743 z m 1.280272,1.733412 q -0.625753,0 -1.136425,-0.302091 -0.510671,-0.302082 -0.816354,-0.816352 -0.305682,-0.514267 -0.305682,-1.140019 0,-0.726454 0.449531,-1.291066 0.449537,-0.564617 1.161596,-0.891881 0.712067,-0.327256 1.496054,-0.327256 0.489099,0 0.881089,0.11508 0.391997,0.11508 0.564617,0.28051 0.352438,0.352436 0.352438,1.157996 0,0.589793 -0.208589,1.161605 -0.208581,0.571805 -0.575406,1.035723 -0.366815,0.463923 -0.84512,0.740832 -0.478304,0.27692 -1.017749,0.276919 z m -0.11508,2.711588 q 1.021342,0 1.94199,-0.312873 0.920649,-0.312878 1.679463,-0.909859 0.758812,-0.596985 1.298257,-1.438511 0.438745,-0.683292 0.708468,-1.424127 0.269721,-0.740833 0.50707,-1.485259 0.237356,-0.744435 0.553831,-1.427726 l 0.417164,-0.891872 q 0.467517,-0.999773 0.672507,-1.614731 0.204988,-0.614965 0.204988,-1.003363 0,-0.467516 -0.276919,-0.83434 -0.276909,-0.366817 -0.744426,-0.58259 -0.467517,-0.215768 -1.050116,-0.215768 -0.517864,0 -1.276678,0.262528 -0.758813,0.262528 -1.995931,0.866707 l -1.143616,0.561006 q -0.712066,0.345242 -1.514034,0.66531 -0.801974,0.320071 -1.582361,0.661713 -0.780394,0.341651 -1.427726,0.766007 -0.647325,0.424366 -1.042916,0.978189 -0.41717,0.589793 -0.632945,1.330627 -0.215782,0.740832 -0.215782,1.560779 0,0.97819 0.36323,1.798143 0.363223,0.819946 1.024936,1.424129 0.661711,0.604169 1.560787,0.935026 0.899067,0.330855 1.970759,0.330855 z"
         id="path1-1"
         style="fill:#85cd12;fill-opacity:1;stroke-width:0.185207" /><path
         d="m 15.249072,19.665227 q -1.492637,0 -2.803821,-0.506681 Q 11.134055,18.651877 10.137829,17.7515 9.1415916,16.851124 8.5801412,15.659759 8.0186922,14.468392 8.0186922,13.105845 v -0.116396 q 0,-0.677852 -0.05824,-1.122899 -0.05824,-0.445059 -0.116396,-0.804514 -0.05824,-0.359467 -0.05824,-0.75659 0,-0.314969 0.208838,-0.5854182 Q 8.2034796,9.4495688 8.5389784,9.2852522 8.6074104,8.7922688 8.9121428,8.4464982 9.2168304,8.100729 9.7029594,8.100729 q 0.18487,0 0.3560406,0.0308 0.171183,0.0308 0.33551,0.085568 0.499827,-0.116396 1.054422,-0.171171 0.554607,-0.054768 1.150296,-0.054768 2.471737,0 4.118433,0.7702856 1.646694,0.7702758 2.533371,2.3895854 0.886679,1.619301 1.064704,4.159517 0.0205,0.287572 0.09923,0.660738 0.07874,0.373153 0.150631,0.739463 0.0719,0.366312 0.0719,0.653884 0,0.534067 -0.297845,0.996239 -0.297833,0.462161 -0.783973,0.746306 -0.486129,0.284158 -1.054433,0.284158 -0.30126,0 -0.489556,-0.01008 -0.188286,-0.01008 -0.434777,-0.0308 -1.218761,0.314958 -2.327963,0.314958 z M 7.7858974,18.008263 Q 6.7725466,16.885362 6.296688,15.844627 5.8208294,14.803891 5.8208294,13.811081 q 0,-1.198208 0.6230728,-2.324535 Q 7.0669638,10.360218 8.18302,9.2989428 l 0.4450586,0.4450586 -0.6230728,0.4382026 0.2807196,1.341997 0.08904,2.588152 0.8147958,1.923986 Q 8.9293726,16.508782 8.5767588,17.005181 8.2241352,17.501592 7.785931,18.008263 Z m 1.376235,-7.915076 q -0.136934,0 -0.2259502,-0.08221 L 8.4500532,9.5933166 Q 7.7037342,8.9565574 7.330581,8.538894 6.9574152,8.1212306 6.8273258,7.8507716 6.6972378,7.5803224 6.6972378,7.3817562 q 0,-0.2396492 0.171171,-0.4142362 0.171171,-0.1745982 0.3491964,-0.1745982 0.123242,0 0.1403598,0.116396 0.017136,0.116396 0.047936,0.2807308 0.0308,0.1643278 0.1882958,0.3218012 L 9.538724,9.3673804 q 0.102704,0.095872 0.102704,0.239638 0,0.1643278 -0.147203,0.3252284 -0.1472142,0.1609002 -0.3320828,0.1609002 z m 6.0869396,9.037975 q 0.527212,0 1.071547,-0.07874 0.544336,-0.07874 1.208492,-0.249919 0.267031,0.02744 0.445046,0.0411 0.178026,0.01372 0.527212,0.01372 0.403975,0 0.766859,-0.219109 0.362894,-0.219095 0.592261,-0.561449 0.229378,-0.342342 0.229378,-0.71208 0,-0.219096 -0.0719,-0.58199 -0.0719,-0.362883 -0.147214,-0.746319 -0.07526,-0.383424 -0.102704,-0.664154 -0.205411,-2.451209 -1.00307,-3.957533 -0.797671,-1.506323 -2.304006,-2.197874 -1.506324,-0.6915384 -3.86167,-0.6915384 -0.623073,0 -1.163982,0.05824 -0.540909,0.05824 -1.040735,0.195139 -0.212265,-0.068432 -0.380009,-0.106176 -0.1677552,-0.037632 -0.3389262,-0.037632 -0.3560396,0 -0.4963994,0.270459 -0.140371,0.2704492 -0.140371,0.7428918 -0.1917118,0.00672 -0.3526124,0.116396 -0.1609006,0.109536 -0.2567628,0.2567506 -0.095872,0.147214 -0.095872,0.284158 0,0.438204 0.11298,1.098931 0.11298,0.660727 0.11298,1.585072 v 0.116396 q 0,1.266686 0.5135242,2.362201 0.5135256,1.095514 1.4241596,1.917144 0.910647,0.821639 2.129409,1.2838 1.21876,0.462172 2.622379,0.462172 z m 0.896949,-7.56588 q -0.130088,0 -0.232795,-0.09587 -0.513524,-0.472442 -1.246144,-0.739474 -0.718935,-0.260179 -1.574801,-0.30126 -0.116396,-0.0067 -0.195139,-0.08557 -0.07874,-0.07874 -0.07874,-0.188296 0,-0.116396 0.08221,-0.1951392 0.08221,-0.078736 0.212253,-0.078736 0.417663,0 0.879834,0.095872 0.462172,0.095872 0.879835,0.2533352 0.629916,0.232794 1.064705,0.540909 0.434775,0.308114 0.434775,0.568293 0,0.08904 -0.06507,0.157485 -0.06507,0.06843 -0.1609,0.06843 z"
         id="path1-3"
         style="fill:#cfcc13;fill-opacity:1;stroke-width:0.185209" /><path
         d="M 34.475764,11.543253 V 9.249415 q -0.251272,-0.4052608 -0.405272,-1.0131744 -0.154,-0.6079024 -0.154,-1.2320098 0,-0.6160112 0.243164,-1.1145008 0.243163,-0.4984784 0.656531,-0.7943264 0.413381,-0.295848 0.915914,-0.295848 0.348532,0 0.611956,0.093184 0.263424,0.093184 0.490381,0.2715328 L 36.453481,5.95049 Q 36.153579,5.820808 35.83747,5.820808 q -0.494424,0 -0.786229,0.3485328 -0.291793,0.3485328 -0.291793,0.9483264 0,0.3647504 0.125636,0.7902818 0.125636,0.4255328 0.328261,0.7659568 l 2.415414,0.8510656 -0.235054,0.7700116 -2.107404,-0.7294788 v 1.7993918 z m 0.07291,6.297893 q -0.624107,0 -1.138803,-0.308011 -0.514696,-0.308 -0.822696,-0.82675 -0.308011,-0.518749 -0.308011,-1.134749 0,-0.632229 0.336381,-1.183392 0.336369,-0.551163 0.95238,-0.891599 l 0.299903,0.567381 q -0.445794,0.251272 -0.693011,0.648435 -0.247218,0.397164 -0.247218,0.851066 0,0.656533 0.474163,1.142858 0.474175,0.486326 1.146912,0.486326 0.648436,0 1.146914,-0.421478 0.49849,-0.421488 0.49849,-1.207706 0,-0.178315 -0.04054,-0.336381 -0.04054,-0.158054 -0.08915,-0.263424 l 0.583587,-0.267478 q 0.08915,0.170217 0.141837,0.397163 0.05264,0.226957 0.05264,0.478229 0,0.648424 -0.299892,1.163118 -0.299902,0.514696 -0.818652,0.810544 -0.51874,0.295848 -1.175284,0.295848 z m 3.436698,2.042556 q -0.656544,0 -1.17124,-0.295848 -0.514685,-0.295848 -0.810533,-0.814588 -0.295848,-0.51875 -0.295848,-1.167185 0,-0.818642 0.466055,-1.410336 0.466065,-0.591696 1.252283,-0.794327 l 0.154011,0.62412 q -0.51875,0.129682 -0.871338,0.587642 -0.352576,0.457944 -0.352576,0.992901 0,0.705174 0.462,1.167185 0.462012,0.462 1.167186,0.462 0.705163,0 1.167174,-0.462 0.462,-0.462011 0.462,-1.167185 0,-0.41337 -0.170206,-0.737587 l 0.567379,-0.291793 q 0.251261,0.470108 0.251261,1.02938 0,0.648435 -0.295848,1.167185 -0.295848,0.51874 -0.810531,0.814588 -0.514696,0.295848 -1.171229,0.295848 z m -1.458979,-3.704164 -0.162109,-1.175283 0.867283,-0.380957 0.08109,1.240131 z m 4.960501,5.47924 q -0.648424,0 -1.16312,-0.308 -0.514696,-0.308 -0.814597,-0.82675 -0.299891,-0.51875 -0.299891,-1.142859 0,-0.591696 0.255315,-1.073968 0.255325,-0.482272 0.74164,-0.814587 l 0.372848,0.526848 q -0.324218,0.226945 -0.522794,0.587641 -0.198587,0.360685 -0.198587,0.757848 0,0.680859 0.466066,1.163131 0.466054,0.482272 1.16312,0.482272 0.67275,0 1.150968,-0.466065 0.478217,-0.466055 0.478217,-1.179338 0,-0.437685 -0.235054,-0.842957 l 0.559272,-0.308 q 0.324218,0.551164 0.324218,1.167175 0,0.648424 -0.308012,1.167174 -0.308,0.518751 -0.822696,0.814599 -0.514684,0.295836 -1.146913,0.295836 z m -5.754828,-6.200621 q -0.62412,0 -1.142859,-0.308011 -0.518749,-0.308 -0.826749,-0.82675 -0.308011,-0.518739 -0.308011,-1.142861 0,-0.632216 0.308011,-1.146912 0.308,-0.514696 0.826749,-0.822696 0.518739,-0.308 1.142859,-0.308 0.632218,0 1.146914,0.308 0.514696,0.308 0.822696,0.822696 0.308011,0.514696 0.308011,1.146912 0,0.624122 -0.308011,1.142861 -0.308,0.51875 -0.822696,0.82675 -0.514696,0.308011 -1.146914,0.308011 z m 0,-0.648435 q 0.672751,0 1.150968,-0.482272 0.478218,-0.482272 0.478218,-1.146915 0,-0.672749 -0.478218,-1.150966 -0.478217,-0.478218 -1.150968,-0.478218 -0.664641,0 -1.146913,0.478218 -0.482271,0.478217 -0.482271,1.150966 0,0.664643 0.482271,1.146915 0.482272,0.482272 1.146913,0.482272 z m 3.501535,2.407304 q -0.62412,0 -1.142859,-0.308011 -0.518751,-0.307998 -0.826751,-0.826749 -0.308011,-0.518739 -0.308011,-1.142859 0,-0.632218 0.308011,-1.146914 0.308,-0.514686 0.826751,-0.822697 0.518739,-0.308 1.142859,-0.308 0.632216,0 1.146912,0.308 0.514685,0.308011 0.822696,0.822697 0.308,0.514696 0.308,1.146914 0,0.62412 -0.308,1.142859 -0.308011,0.518751 -0.822696,0.826749 -0.514696,0.308011 -1.146912,0.308011 z m 0,-0.648433 q 0.672749,0 1.150966,-0.482272 0.478218,-0.482272 0.478218,-1.146914 0,-0.67275 -0.478218,-1.150968 -0.478217,-0.478218 -1.150966,-0.478218 -0.664642,0 -1.146914,0.478218 -0.482272,0.478218 -0.482272,1.150968 0,0.664642 0.482272,1.146914 0.482272,0.482272 1.146914,0.482272 z m 2.820674,2.520782 q -0.648436,0 -1.167175,-0.295848 -0.51875,-0.295848 -0.814598,-0.814598 -0.295848,-0.518739 -0.295848,-1.167175 l 0.656544,-0.01624 q 0,0.429588 0.226945,0.798381 0.226957,0.368794 0.595751,0.595739 0.368793,0.226957 0.798381,0.226957 0.429587,0 0.79838,-0.226957 0.368794,-0.226945 0.595751,-0.595739 0.226945,-0.368793 0.226945,-0.798381 0,-0.397161 -0.210739,-0.770009 -0.210739,-0.372848 -0.567381,-0.62412 l 0.356642,-0.543066 q 0.534957,0.356642 0.80649,0.85512 0.271532,0.49849 0.271532,1.098282 0,0.648435 -0.295848,1.167174 -0.295848,0.518751 -0.810544,0.814599 -0.514696,0.295848 -1.171228,0.295848 z m -4.401229,-5.406306 v -1.175283 l 1.021283,0.502543 z m 7.165163,7.821709 q -0.591683,0 -1.086118,-0.267478 -0.494424,-0.267478 -0.826751,-0.77812 l 0.534957,-0.35663 q 0.235054,0.340424 0.579533,0.547108 0.344478,0.206696 0.782173,0.206696 0.664641,0 1.155022,-0.449859 0.49037,-0.449848 0.49037,-1.179326 0,-0.526859 -0.283685,-0.936175 -0.283685,-0.409326 -0.810544,-0.587641 l 0.218848,-0.616011 q 0.697066,0.226945 1.110446,0.818641 0.41337,0.591696 0.41337,1.321186 0,0.640326 -0.303946,1.155011 -0.303956,0.514696 -0.818652,0.818653 -0.514696,0.303945 -1.155023,0.303945 z m -3.939218,-7.8136 -1.223913,-0.737588 1.167174,-0.713282 z m -1.823717,-0.413371 q -0.624108,0 -1.142859,-0.308011 -0.518739,-0.308 -0.82675,-0.826749 -0.308,-0.51875 -0.308,-1.142859 0,-0.632218 0.308,-1.1469138 0.308011,-0.514696 0.82675,-0.822696 0.518751,-0.3080112 1.142859,-0.3080112 0.632228,0 1.146913,0.3080112 0.514696,0.308 0.822707,0.822696 0.308,0.5146958 0.308,1.1469138 0,0.624109 -0.308,1.142859 -0.308011,0.518749 -0.822707,0.826749 -0.514685,0.308011 -1.146913,0.308011 z m 0,-0.648435 q 0.672749,0 1.150967,-0.482271 0.478218,-0.482272 0.478218,-1.146913 0,-0.672751 -0.478218,-1.1509682 -0.478218,-0.4782176 -1.150967,-0.4782176 -0.664641,0 -1.146913,0.4782176 -0.482272,0.4782172 -0.482272,1.1509682 0,0.664641 0.482272,1.146913 0.482272,0.482271 1.146913,0.482271 z m 5.284719,5.552198 q -0.218837,0 -0.409315,-0.04054 -0.190479,-0.04054 -0.376903,-0.105392 l 0.137788,-0.607902 q 0.291794,0.105392 0.591696,0.105392 0.721369,0 1.207695,-0.478218 0.486326,-0.478216 0.486326,-1.150966 0,-0.697066 -0.49038,-1.175283 -0.49037,-0.478218 -1.130695,-0.478218 l 0.05678,-0.62412 q 0.599792,0 1.102325,0.303957 0.502544,0.303957 0.80649,0.818641 0.303956,0.514696 0.303956,1.155023 0,0.62412 -0.308011,1.142858 -0.308,0.51875 -0.82675,0.82675 -0.518739,0.308011 -1.150967,0.308011 z m -1.572446,-2.73963 q -0.624109,0 -1.14286,-0.308 -0.518739,-0.308 -0.82675,-0.826751 -0.308,-0.51875 -0.308,-1.14286 0,-0.632228 0.308,-1.146912 0.308011,-0.514696 0.82675,-0.822696 0.518751,-0.308012 1.14286,-0.308012 0.632228,0 1.146913,0.308012 0.514696,0.308 0.822706,0.822696 0.308,0.514684 0.308,1.146912 0,0.62411 -0.308,1.14286 -0.30801,0.518751 -0.822706,0.826751 -0.514685,0.308 -1.146913,0.308 z m 0,-0.648424 q 0.67275,0 1.150968,-0.482272 0.478217,-0.482272 0.478217,-1.146915 0,-0.672749 -0.478217,-1.150967 -0.478218,-0.478217 -1.150968,-0.478217 -0.664642,0 -1.146914,0.478217 -0.482272,0.478218 -0.482272,1.150967 0,0.664643 0.482272,1.146915 0.482272,0.482272 1.146914,0.482272 z m 0.526859,-3.347535 -0.697066,-0.275587 q 0.299891,-0.137788 0.526848,-0.518739 0.226946,-0.380957 0.226946,-0.8267504 0,-0.713272 -0.462,-1.1752832 -0.462011,-0.4620112 -1.159077,-0.4620112 -0.445794,0 -0.863218,0.2715328 -0.417435,0.2715328 -0.70112,0.7578592 L 39.598342,8.908991 q 0.35664,-0.6322176 0.936173,-1.0010112 0.579533,-0.3687936 1.203653,-0.3687936 0.640326,0 1.150968,0.2998912 0.510641,0.2999024 0.810533,0.8145984 0.299902,0.514696 0.299902,1.1550224 0,0.4944238 -0.18237,0.9037508 -0.182369,0.409315 -0.522793,0.733532 z"
         id="path1-4"
         style="fill:#a36ef2;fill-opacity:1;stroke-width:0.185207" /><path
         d="m 3.9046123,48.025882 q -0.897981,0 -1.8400564,-0.296653 -0.9420767,-0.296654 -1.99239318,-0.561239 -0.6654662,-0.168371 -1.23873252,-0.288638 -0.5732637,-0.12026 -1.1264835,-0.29665 -0.5532184,-0.17639 -1.1785984,-0.521153 -1.6436252,-0.914014 -2.501513,-2.341161 -0.8578934,-1.427146 -0.8578934,-3.094823 V 39.91199 h 0.6414128 v 0.713575 q 0,1.523358 0.7977592,2.778123 0.7977592,1.254769 2.1767998,2.064557 0.5933088,0.344758 1.1866162,0.525154 0.5933088,0.180399 1.19463405,0.300664 0.60132797,0.12026 1.21067097,0.288639 0.59331023,0.16035 1.25877358,0.352775 0.6654676,0.192424 1.2708024,0.328724 0.6053334,0.136304 0.9982014,0.136304 1.3469722,0 2.104641,-0.749654 0.7576688,-0.749652 0.7576688,-2.056533 0,-0.489078 -0.108234,-1.038289 -0.108234,-0.549213 -0.2244956,-1.062343 -0.116256,-0.513133 -0.1563478,-0.881946 -0.040082,-0.44097 -0.020034,-0.745644 0.020034,-0.304669 0.06013,-0.645424 0.040082,-0.34075 0.040082,-0.869918 0,-1.579481 -0.7376278,-2.830238 Q 4.8827713,35.269757 3.5678689,34.50407 2.2529707,33.738381 0.52114972,33.634151 l 0.040082,-0.641414 q 1.39507758,0.0882 2.57367598,0.5893 1.178597,0.501104 2.0445082,1.346968 0.8659084,0.845866 1.3429584,1.96834 0.4770542,1.122477 0.4770542,2.453409 0,0.649434 -0.068152,1.122478 -0.068152,0.473041 -0.01204,1.082386 0.064148,0.68952 0.2766089,1.451198 0.2124668,0.761679 0.2124668,1.587502 0,1.579482 -0.9500943,2.505524 -0.9500932,0.926042 -2.553628,0.926042 z m -7.2159094,-4.321528 q -0.248549,0 -0.505113,-0.232514 -0.2565696,-0.232512 -0.2565696,-0.448989 0,-0.136304 0.096222,-0.224496 0.096208,-0.08819 0.2325148,-0.08819 0.2485462,0 0.5051144,0.232515 0.256564,0.232509 0.256564,0.44899 0,0.128282 -0.096208,0.220484 -0.096208,0.0922 -0.2325106,0.0922 z m 2.40530225,1.042297 q -0.24854615,0 -0.50511165,-0.232513 -0.2565682,-0.232511 -0.2565682,-0.44899 0,-0.136304 0.096222,-0.224494 0.096208,-0.08819 0.2325121,-0.08819 0.2485476,0 0.50511295,0.232514 0.25656817,0.232512 0.25656817,0.44899 0,0.128282 -0.096222,0.220486 -0.096208,0.0922 -0.23251337,0.0922 z m 3.69614975,1.002208 q -0.2886352,0 -0.452998,-0.100212 -0.1643642,-0.100212 -0.1643642,-0.276609 0,-0.17639 0.1643642,-0.276609 0.1643628,-0.100212 0.452998,-0.100212 0.2886366,0 0.4529994,0.100212 0.16436,0.100212 0.16436,0.276609 0,0.176389 -0.16436,0.276609 -0.1643628,0.100212 -0.4529994,0.100212 z m -3.29526678,-3.888573 q -0.24854477,0 -0.50511432,-0.232513 -0.256564,-0.232511 -0.256564,-0.448988 0,-0.136304 0.096222,-0.224495 0.096208,-0.08819 0.23251055,-0.08819 0.24854897,0 0.50511297,0.232514 0.2565696,0.23251 0.2565696,0.448988 0,0.128282 -0.096222,0.220486 -0.096208,0.0922 -0.2325148,0.09219 z m 2.93447278,1.082388 q -0.2164792,0 -0.457009,-0.260574 -0.2405298,-0.260575 -0.2405298,-0.501104 0,-0.136304 0.092204,-0.224497 0.092204,-0.08819 0.2204902,-0.08819 0.216475,0 0.4570076,0.26057 0.2405298,0.260575 0.2405298,0.501104 0,0.128282 -0.088186,0.220486 -0.0882,0.0922 -0.2244956,0.0922 z m -6.350001,-1.042297 q -0.096222,0 -0.2846298,-0.172379 -0.1884148,-0.172381 -0.388857,-0.448994 -0.2004408,-0.276608 -0.3447598,-0.585289 -0.1443162,-0.30868 -0.1443162,-0.581282 v -0.48106 q -0.096222,0.12026 -0.2204888,0.252557 -0.124278,0.132286 -0.260575,0.212467 -0.2004394,0.12026 -0.4489898,0.196434 -0.2485476,0.07617 -0.5772732,0.23652 -0.216475,0.10423 -0.336742,0.228504 -0.1202603,0.124278 -0.2325123,0.124278 -0.1763888,0 -0.2124682,-0.212468 -0.036078,-0.212467 -0.036078,-0.412909 0,-0.745644 0.2726024,-1.631598 0.2726013,-0.885952 0.7496513,-1.767896 0.4770528,-0.881947 1.0783766,-1.595521 -0.5371828,-0.521149 -0.8137934,-1.158552 -0.2766092,-0.637408 -0.2766092,-1.334944 0,-0.304673 0.03206,-0.589302 0.03206,-0.284625 0.048104,-0.356785 0.01603,-0.06415 0.1563464,-0.176389 0.1403052,-0.112252 0.3207036,-0.204451 0.1803998,-0.0922 0.3166996,-0.0922 0.1844066,0 0.2244956,0.04008 0.040082,0.04008 0.048104,0.10423 0.01603,0.152336 0,0.412911 -0.01603,0.260575 -0.01603,0.533177 0,0.617361 0.2645846,1.122474 0.2645832,0.505114 0.8097838,0.633398 0.9541056,-0.769699 2.0485178,-1.182608 1.0944137,-0.412912 2.25697642,-0.412912 0.4249378,0 0.86590983,0.03206 0.44097195,0.03207 0.74564275,0.116256 0.3046722,0.08418 0.3046722,0.236519 0,0.152335 -0.220486,0.408903 -0.220486,0.256566 -0.5411923,0.529165 -0.32069945,0.272604 -0.64541548,0.489079 -0.3247174,0.216479 -0.5411924,0.304674 0.1844038,0.05613 0.517139,0.264582 0.33273243,0.208458 0.68150328,0.481061 0.3487693,0.272601 0.5892977,0.51714 0.2405312,0.244539 0.2405312,0.380839 0,0.232515 -0.2886366,0.412909 -0.2886366,0.180399 -0.7336167,0.28062 -0.44498028,0.100212 -0.91000848,0.100212 -0.128282,0 -0.2485476,-0.0081 -0.12026,-0.008 -0.232512,-0.03206 0.1683696,0.368814 0.2766106,0.958113 0.108234,0.589299 0.108234,1.078378 0,0.200439 -0.01603,0.364803 -0.01603,0.164362 -0.096222,0.228506 -0.1924258,0.144314 -0.5772746,0.144314 -0.36880897,0 -0.80577422,-0.10423 -0.4369638,-0.10423 -0.8097866,-0.244539 -0.3728214,-0.140309 -0.5492102,-0.260575 0,0.681505 -0.2164778,1.278823 -0.2164764,0.597317 -0.4850692,0.970138 -0.2685914,0.372822 -0.4449802,0.372822 z m 8.915655,1.820011 q -0.192423,0 -0.3648022,-0.252554 -0.1723806,-0.252559 -0.1723806,-0.549215 0,-0.168369 0.092204,-0.276608 0.092204,-0.108234 0.2204846,-0.108234 0.1924244,0 0.3648036,0.252558 0.1723806,0.252554 0.1723806,0.54921 0,0.168374 -0.0882,0.276609 -0.0882,0.108234 -0.2244956,0.108234 z M 2.0926175,39.527143 q -0.2004408,0 -0.4209296,-0.268591 -0.2204846,-0.268593 -0.2204846,-0.533178 0,-0.152334 0.0882,-0.244538 0.0882,-0.0922 0.216475,-0.0922 0.2084586,0 0.4249378,0.268589 0.2164792,0.268594 0.2164792,0.533176 0,0.152338 -0.084196,0.244539 -0.084196,0.0922 -0.2204846,0.0922 z m 2.6137636,0.432954 q -0.184408,0 -0.3207092,-0.220486 -0.136304,-0.220484 -0.136304,-0.525158 0,-0.208459 0.096222,-0.332734 0.096208,-0.124278 0.2485462,-0.124278 0.184408,0 0.3207078,0.220489 0.136304,0.220486 0.136304,0.525155 0,0.20846 -0.092204,0.332734 -0.092204,0.124278 -0.2525558,0.124278 z M 3.4796745,36.528531 q -0.2244942,0 -0.4610158,-0.252556 -0.236523,-0.252559 -0.236523,-0.501105 0,-0.136304 0.092204,-0.228504 0.092204,-0.0922 0.220486,-0.0922 0.2244984,0 0.4610172,0.252559 0.2365216,0.252556 0.2365216,0.501103 0,0.128282 -0.0882,0.224494 -0.088186,0.09621 -0.2244956,0.09621 z"
         id="path8"
         style="fill:#f26e95;fill-opacity:1;stroke-width:0.185207" /></g></g></svg>
