<?xml version="1.0" encoding="UTF-8" standalone="no"?>
<!-- Created with Inkscape (http://www.inkscape.org/) -->

<svg
   width="200"
   height="200"
   viewBox="0 0 52.916665 52.916666"
   version="1.1"
   id="svg1"
   xml:space="preserve"
   xmlns="http://www.w3.org/2000/svg"
   xmlns:svg="http://www.w3.org/2000/svg"><defs
     id="defs1" /><g
     id="layer1"><g
       id="g5"
       style="display:none"><rect
         style="opacity:0.119247;fill:#86dfff;stroke-width:5.29167;paint-order:markers stroke fill"
         id="rect2"
         width="26.458332"
         height="26.458334"
         x="0"
         y="-1.5258428e-15" /><rect
         style="opacity:0.119247;fill:#035f78;fill-opacity:1;stroke-width:5.29167;paint-order:markers stroke fill"
         id="rect3"
         width="26.458332"
         height="26.458334"
         x="26.458332"
         y="-1.5258428e-15" /><rect
         style="opacity:0.119247;fill:#670a71;fill-opacity:1;stroke-width:5.29167;paint-order:markers stroke fill"
         id="rect4"
         width="26.458332"
         height="26.458334"
         x="26.458332"
         y="26.458332" /><rect
         style="opacity:0.119247;fill:#42ee82;fill-opacity:1;stroke-width:5.29167;paint-order:markers stroke fill"
         id="rect5"
         width="26.458332"
         height="26.458334"
         x="3.5527137e-15"
         y="26.458332" /></g><path
       d="m 42.476513,45.643487 q -0.641415,0 -1.314326,-0.211895 -0.672912,-0.211896 -1.423138,-0.400885 -0.475333,-0.120265 -0.884809,-0.20617 -0.409474,-0.0859 -0.804631,-0.211893 -0.395156,-0.125993 -0.841856,-0.372252 -1.174018,-0.652867 -1.786795,-1.672258 -0.612781,-1.01939 -0.612781,-2.210588 V 39.84785 h 0.458152 v 0.509696 q 0,1.088113 0.569828,1.984374 0.569828,0.896263 1.554857,1.474683 0.423792,0.246256 0.847583,0.37511 0.423792,0.128857 0.85331,0.21476 0.42952,0.0859 0.864765,0.206171 0.423793,0.114536 0.899124,0.251982 0.475334,0.137446 0.907716,0.234803 0.432381,0.09736 0.713001,0.09736 0.962123,0 1.503315,-0.535467 0.541192,-0.535466 0.541192,-1.468952 0,-0.349342 -0.07731,-0.741635 -0.07731,-0.392295 -0.160354,-0.758817 -0.08304,-0.366523 -0.111677,-0.629961 -0.02863,-0.314979 -0.01431,-0.532603 0.01431,-0.217621 0.04295,-0.461017 0.02863,-0.243393 0.02863,-0.62137 0,-1.128201 -0.526877,-2.021599 -0.526874,-0.893399 -1.46609,-1.440318 -0.939213,-0.546921 -2.176228,-0.621371 l 0.02863,-0.458153 q 0.996484,0.063 1.83834,0.420929 0.841855,0.357931 1.460363,0.96212 0.618506,0.60419 0.959256,1.405957 0.340753,0.801769 0.340753,1.752435 0,0.463881 -0.04868,0.80177 -0.04868,0.337886 -0.0086,0.773133 0.04582,0.492514 0.197578,1.03657 0.151762,0.544056 0.151762,1.13393 0,1.128201 -0.678639,1.78966 -0.678638,0.661458 -1.82402,0.661458 z m -5.154221,-3.086806 q -0.177535,0 -0.360795,-0.166081 -0.183264,-0.16608 -0.183264,-0.320707 0,-0.09736 0.06873,-0.160354 0.06872,-0.06299 0.166082,-0.06299 0.177533,0 0.360796,0.166082 0.18326,0.166078 0.18326,0.320707 0,0.09163 -0.06872,0.157489 -0.06872,0.06586 -0.166079,0.06586 z m 1.718073,0.744498 q -0.177533,0 -0.360794,-0.166081 -0.183263,-0.166079 -0.183263,-0.320707 0,-0.09736 0.06873,-0.160353 0.06872,-0.06299 0.16608,-0.06299 0.177534,0 0.360795,0.166082 0.183263,0.16608 0.183263,0.320707 0,0.09163 -0.06873,0.15749 -0.06872,0.06586 -0.166081,0.06586 z m 2.640107,0.715863 q -0.206168,0 -0.32357,-0.07158 -0.117403,-0.07158 -0.117403,-0.197578 0,-0.125993 0.117403,-0.197578 0.117402,-0.07158 0.32357,-0.07158 0.206169,0 0.323571,0.07158 0.1174,0.07158 0.1174,0.197578 0,0.125992 -0.1174,0.197578 -0.117402,0.07158 -0.323571,0.07158 z M 39.32671,41.23949 q -0.177532,0 -0.360796,-0.166081 -0.18326,-0.166079 -0.18326,-0.320706 0,-0.09736 0.06873,-0.160353 0.06872,-0.06299 0.166079,-0.06299 0.177535,0 0.360795,0.166081 0.183264,0.166079 0.183264,0.320706 0,0.09163 -0.06873,0.15749 -0.06872,0.06586 -0.166082,0.06585 z m 2.096052,0.773134 q -0.154628,0 -0.326435,-0.186124 -0.171807,-0.186125 -0.171807,-0.357932 0,-0.09736 0.06586,-0.160355 0.06586,-0.06299 0.157493,-0.06299 0.154625,0 0.326434,0.186122 0.171807,0.186125 0.171807,0.357931 0,0.09163 -0.06299,0.15749 -0.063,0.06586 -0.160354,0.06586 z m -4.535715,-0.744498 q -0.06873,0 -0.203307,-0.123128 -0.134582,-0.123129 -0.277755,-0.32071 -0.143172,-0.197577 -0.246257,-0.418063 -0.103083,-0.220486 -0.103083,-0.415202 v -0.343614 q -0.06873,0.0859 -0.157492,0.180398 -0.08877,0.09449 -0.186125,0.151762 -0.143171,0.0859 -0.320707,0.14031 -0.177534,0.05441 -0.412338,0.168943 -0.154625,0.07445 -0.24053,0.163217 -0.0859,0.08877 -0.16608,0.08877 -0.125992,0 -0.151763,-0.151763 -0.02577,-0.151762 -0.02577,-0.294935 0,-0.532603 0.194716,-1.165427 0.194715,-0.632823 0.535465,-1.262783 0.340752,-0.629962 0.770269,-1.139658 -0.383702,-0.372249 -0.581281,-0.827537 -0.197578,-0.455291 -0.197578,-0.953531 0,-0.217624 0.0229,-0.42093 0.0229,-0.203304 0.03436,-0.254847 0.01145,-0.04582 0.111676,-0.125992 0.100218,-0.08018 0.229074,-0.146036 0.128857,-0.06586 0.226214,-0.06586 0.131719,0 0.160354,0.02863 0.02863,0.02863 0.03436,0.07445 0.01145,0.108811 0,0.294936 -0.01145,0.186125 -0.01145,0.380841 0,0.440972 0.188989,0.801767 0.188988,0.360796 0.578417,0.452427 0.681504,-0.549785 1.463227,-0.84472 0.781724,-0.294937 1.612126,-0.294937 0.303527,0 0.618507,0.0229 0.31498,0.02291 0.532602,0.08304 0.217623,0.06013 0.217623,0.168942 0,0.108811 -0.15749,0.292074 -0.15749,0.183261 -0.386566,0.377975 -0.229071,0.194717 -0.461011,0.349342 -0.231941,0.154628 -0.386566,0.217624 0.131717,0.04009 0.369385,0.188987 0.237666,0.148899 0.486788,0.343615 0.249121,0.194715 0.420927,0.369386 0.171808,0.174671 0.171808,0.272028 0,0.166082 -0.206169,0.294935 -0.206169,0.128856 -0.524012,0.200443 -0.317843,0.07158 -0.650006,0.07158 -0.09163,0 -0.177534,-0.0058 -0.0859,-0.0057 -0.16608,-0.0229 0.120264,0.263438 0.197579,0.684366 0.07731,0.420928 0.07731,0.77027 0,0.143171 -0.01145,0.260574 -0.01145,0.117401 -0.06873,0.163218 -0.137447,0.103082 -0.412339,0.103082 -0.263435,0 -0.575553,-0.07445 -0.312117,-0.07445 -0.578419,-0.174671 -0.266301,-0.100221 -0.392293,-0.186125 0,0.486789 -0.154627,0.913445 -0.154626,0.426655 -0.346478,0.692956 -0.191851,0.266301 -0.317843,0.266301 z m 6.368325,1.300008 q -0.137445,0 -0.260573,-0.180396 -0.123129,-0.180399 -0.123129,-0.392296 0,-0.120264 0.06586,-0.197577 0.06586,-0.07731 0.157489,-0.07731 0.137446,0 0.260574,0.180398 0.123129,0.180396 0.123129,0.392293 0,0.120267 -0.063,0.197578 -0.063,0.07731 -0.160354,0.07731 z m -2.073141,-2.995175 q -0.143172,0 -0.300664,-0.191851 -0.157489,-0.191852 -0.157489,-0.380841 0,-0.10881 0.063,-0.17467 0.063,-0.06586 0.154625,-0.06586 0.148899,0 0.303527,0.191849 0.154628,0.191853 0.154628,0.38084 0,0.108813 -0.06014,0.174671 -0.06014,0.06586 -0.157489,0.06586 z m 1.866974,0.309253 q -0.13172,0 -0.229078,-0.15749 -0.09736,-0.157489 -0.09736,-0.375113 0,-0.148899 0.06873,-0.237667 0.06872,-0.08877 0.177533,-0.08877 0.13172,0 0.229077,0.157492 0.09736,0.15749 0.09736,0.375111 0,0.1489 -0.06586,0.237667 -0.06586,0.08877 -0.180397,0.08877 z m -0.876219,-2.451119 q -0.160353,0 -0.329297,-0.180397 -0.168945,-0.180399 -0.168945,-0.357932 0,-0.09736 0.06586,-0.163217 0.06586,-0.06586 0.15749,-0.06586 0.160356,0 0.329298,0.180399 0.168944,0.180397 0.168944,0.357931 0,0.09163 -0.063,0.160353 -0.06299,0.06872 -0.160354,0.06872 z"
       id="path1"
       style="stroke-width:0.264583;fill:#f26e95;fill-opacity:1" /><path
       d="m 12.237619,45.030539 q -0.965856,0 -1.75704,-0.313388 Q 9.6894009,44.403757 9.1217003,43.825785 8.554005,43.247815 8.2457495,42.443787 7.9374993,41.639761 7.9374993,40.658491 q 0,-0.750078 0.2080684,-1.407684 0.2080736,-0.657606 0.6242156,-1.23815 0.3493505,-0.488066 0.8502597,-0.832278 0.500909,-0.344218 1.081453,-0.60623 0.580543,-0.262016 1.171358,-0.493204 0.59082,-0.231188 1.114848,-0.493204 l 0.765493,-0.38018 q 0.924756,-0.457238 1.525852,-0.660172 0.601091,-0.20293 1.027504,-0.20293 0.667882,0 1.166225,0.272288 0.498337,0.272288 0.773197,0.762926 0.27486,0.490632 0.27486,1.158514 0,0.405866 -0.120734,0.85026 -0.12073,0.4444 -0.377608,0.994114 l -0.164402,0.349356 q -0.195226,0.416142 -0.292841,0.783474 -0.09761,0.36733 -0.177244,0.752648 -0.07963,0.385318 -0.213207,0.852832 -0.133577,0.467518 -0.405865,1.094296 -0.375041,0.868246 -1.050628,1.50016 -0.675588,0.63192 -1.564381,0.973566 -0.888794,0.341646 -1.916304,0.341646 z m -0.986404,-4.777914 q 0.09247,0 0.146414,-0.07706 0.05395,-0.07706 0.05395,-0.19008 0,-0.287702 0.164402,-0.511186 0.164402,-0.223482 0.369899,-0.305684 0.143854,-0.05138 0.143854,-0.200362 0,-0.18496 -0.21064,-0.18496 -0.190088,0 -0.39559,0.18496 -0.205502,0.18494 -0.346784,0.452104 -0.141282,0.26715 -0.141282,0.51889 0,0.313388 0.215778,0.313388 z m 0.91448,1.238151 q -0.446966,0 -0.811732,-0.215779 -0.364765,-0.215773 -0.58311,-0.583109 -0.218344,-0.367333 -0.218344,-0.814299 0,-0.518896 0.321093,-0.92219 0.321098,-0.403298 0.829712,-0.637058 0.508619,-0.233754 1.06861,-0.233754 0.349356,0 0.629349,0.0822 0.279998,0.0822 0.403298,0.200364 0.251741,0.25174 0.251741,0.82714 0,0.421281 -0.148992,0.829718 -0.148986,0.408432 -0.411004,0.739802 -0.262011,0.331374 -0.603657,0.529166 -0.341646,0.1978 -0.726964,0.197799 z m -0.0822,1.936849 q 0.72953,0 1.387136,-0.223481 0.657606,-0.223484 1.199616,-0.649899 0.542009,-0.426418 0.927327,-1.027508 0.313389,-0.488066 0.506048,-1.017234 0.192658,-0.529166 0.362193,-1.060899 0.16954,-0.531739 0.395594,-1.019804 l 0.297974,-0.637052 q 0.333941,-0.714123 0.480362,-1.153379 0.14642,-0.439261 0.14642,-0.716688 0,-0.33394 -0.197799,-0.595957 -0.197792,-0.262012 -0.531733,-0.416136 -0.333941,-0.15412 -0.750083,-0.15412 -0.369903,0 -0.911913,0.18752 -0.542009,0.18752 -1.425665,0.619077 l -0.816868,0.400718 q -0.508619,0.246602 -1.081453,0.475222 -0.572839,0.228622 -1.130258,0.472652 -0.557424,0.244036 -1.0198044,0.547148 -0.4623754,0.303118 -0.7449398,0.698706 -0.297979,0.421281 -0.4521041,0.950448 -0.1541303,0.529166 -0.1541303,1.114842 0,0.698707 0.2594504,1.284388 0.2594451,0.585676 0.7320968,1.017235 0.4726514,0.431549 1.1148484,0.667876 0.642191,0.236325 1.407685,0.236325 z"
       id="path1-1"
       style="stroke-width:0.264583;fill:#85cd12;fill-opacity:1" /><path
       d="m 14.671956,17.826353 q -1.066169,0 -2.002729,-0.361915 Q 11.732658,17.102531 11.021068,16.459405 10.30947,15.816279 9.908434,14.965304 9.507399,14.114328 9.507399,13.14108 v -0.08314 q 0,-0.48418 -0.0416,-0.802071 -0.0416,-0.317899 -0.08314,-0.574653 -0.0416,-0.256762 -0.0416,-0.540421 0,-0.224978 0.14917,-0.418156 0.149161,-0.193185 0.388803,-0.310554 0.04888,-0.352131 0.266546,-0.59911 0.217634,-0.246978 0.564869,-0.246978 0.13205,0 0.254315,0.022 0.122273,0.022 0.23965,0.06112 0.357019,-0.08314 0.753158,-0.122265 0.396148,-0.03912 0.82164,-0.03912 1.765527,0 2.941738,0.550204 1.17621,0.550197 1.809551,1.706847 0.633342,1.156643 0.760503,2.971083 0.01464,0.205409 0.07088,0.471956 0.05624,0.266538 0.107593,0.528188 0.05136,0.261651 0.05136,0.46706 0,0.381476 -0.212746,0.711599 -0.212738,0.330115 -0.559981,0.533076 -0.347235,0.20297 -0.753166,0.20297 -0.215186,0 -0.349683,-0.0072 -0.13449,-0.0072 -0.310555,-0.022 -0.870544,0.22497 -1.662831,0.22497 z M 9.341117,16.642807 Q 8.617295,15.840735 8.277396,15.097353 7.937497,14.35397 7.937497,13.64482 q 0,-0.855863 0.445052,-1.660382 0.445044,-0.80452 1.242227,-1.562574 l 0.317899,0.317899 -0.445052,0.313002 0.200514,0.958569 0.0636,1.84868 0.581997,1.374276 q -0.185849,0.337459 -0.437716,0.69203 -0.251874,0.354579 -0.564877,0.716487 z m 0.983025,-5.653626 q -0.09781,0 -0.161393,-0.05872 L 9.815514,10.632131 Q 9.282429,10.177303 9.015891,9.878972 8.749344,9.580641 8.656423,9.387456 8.563503,9.194278 8.563503,9.052445 q 0,-0.171178 0.122265,-0.295883 0.122265,-0.124713 0.249426,-0.124713 0.08803,0 0.100257,0.08314 0.01224,0.08314 0.03424,0.200522 0.022,0.117377 0.134497,0.229858 l 1.388948,1.325379 q 0.07336,0.06848 0.07336,0.17117 0,0.117377 -0.105145,0.232306 -0.105153,0.114929 -0.237202,0.114929 z m 4.347814,6.455697 q 0.37658,0 0.765391,-0.05624 0.388811,-0.05624 0.863208,-0.178514 0.190737,0.0196 0.31789,0.02936 0.127162,0.0098 0.37658,0.0098 0.288554,0 0.547757,-0.156506 0.25921,-0.156497 0.423043,-0.401035 0.163842,-0.24453 0.163842,-0.508629 0,-0.156497 -0.05136,-0.415707 -0.05136,-0.259202 -0.105153,-0.533085 -0.05376,-0.273874 -0.07336,-0.474396 -0.146722,-1.750863 -0.716479,-2.826809 -0.569765,-1.075945 -1.645718,-1.56991 -1.075946,-0.493956 -2.758336,-0.493956 -0.445052,0 -0.831416,0.0416 -0.386363,0.0416 -0.743382,0.139385 -0.151618,-0.04888 -0.271435,-0.07584 -0.119825,-0.02688 -0.24209,-0.02688 -0.254314,0 -0.354571,0.193185 -0.100265,0.193178 -0.100265,0.530637 -0.136937,0.0048 -0.251866,0.08314 -0.114929,0.07824 -0.183402,0.183393 -0.06848,0.105153 -0.06848,0.20297 0,0.313003 0.0807,0.784951 0.0807,0.471948 0.0807,1.132194 v 0.08314 q 0,0.904776 0.366803,1.687287 0.366804,0.78251 1.017257,1.369388 0.650462,0.586885 1.521006,0.917 0.870543,0.330123 1.873128,0.330123 z m 0.640678,-5.4042 q -0.09292,0 -0.166282,-0.06848 -0.366803,-0.337459 -0.890103,-0.528196 -0.513525,-0.185842 -1.124858,-0.215186 -0.08314,-0.0048 -0.139385,-0.06112 -0.05624,-0.05624 -0.05624,-0.134497 0,-0.08314 0.05872,-0.139385 0.05872,-0.05624 0.151609,-0.05624 0.298331,0 0.628453,0.06848 0.330123,0.06848 0.628454,0.180954 0.44994,0.166281 0.760503,0.386363 0.310554,0.220082 0.310554,0.405924 0,0.0636 -0.04648,0.112489 -0.04648,0.04888 -0.114929,0.04888 z"
       id="path1-3"
       style="stroke-width:0.264584;fill:#cfcc13;fill-opacity:1" /><path
       d="m 35.964831,12.024943 v -1.638456 q -0.17948,-0.289472 -0.28948,-0.723696 -0.11,-0.434216 -0.11,-0.880007 0,-0.440008 0.173688,-0.796072 0.173688,-0.356056 0.468951,-0.567376 0.295272,-0.21132 0.654224,-0.21132 0.248952,0 0.437112,0.06656 0.18816,0.06656 0.350272,0.193952 l -0.272112,0.561584 q -0.214216,-0.09263 -0.440008,-0.09263 -0.35316,0 -0.561592,0.248952 -0.208424,0.248952 -0.208424,0.677376 0,0.260536 0.08974,0.564487 0.08974,0.303952 0.234472,0.547112 l 1.725296,0.607904 -0.167896,0.550008 -1.505288,-0.521056 v 1.28528 z m 0.05208,4.498495 q -0.445791,0 -0.813431,-0.220008 -0.36764,-0.22 -0.58764,-0.590536 -0.220008,-0.370535 -0.220008,-0.810535 0,-0.451592 0.240272,-0.84528 0.240264,-0.393688 0.680272,-0.636856 l 0.214216,0.405272 q -0.318424,0.17948 -0.495008,0.463168 -0.176584,0.283688 -0.176584,0.607904 0,0.468952 0.338688,0.816327 0.338696,0.347376 0.819223,0.347376 0.463168,0 0.819224,-0.301056 0.356064,-0.301063 0.356064,-0.862647 0,-0.127368 -0.02896,-0.240272 -0.02896,-0.112896 -0.06368,-0.18816 l 0.416848,-0.191056 q 0.06368,0.121584 0.101312,0.283688 0.0376,0.162112 0.0376,0.341592 0,0.46316 -0.214208,0.830799 -0.214216,0.36764 -0.584752,0.57896 -0.370528,0.21132 -0.839488,0.21132 z m 2.454784,1.458968 q -0.46896,0 -0.8366,-0.21132 -0.367632,-0.21132 -0.578952,-0.581848 -0.21132,-0.370536 -0.21132,-0.833704 0,-0.584744 0.332896,-1.007383 0.332904,-0.42264 0.894488,-0.567376 l 0.110008,0.4458 q -0.370536,0.09263 -0.622384,0.419744 -0.25184,0.327103 -0.25184,0.709215 0,0.503696 0.33,0.833704 0.330008,0.33 0.833704,0.33 0.503688,0 0.833696,-0.33 0.33,-0.330008 0.33,-0.833704 0,-0.295264 -0.121576,-0.526848 l 0.405271,-0.208423 q 0.179472,0.335791 0.179472,0.735271 0,0.463168 -0.21132,0.833704 -0.21132,0.370528 -0.578951,0.581848 -0.36764,0.21132 -0.836592,0.21132 z m -1.042128,-2.645831 -0.115792,-0.839488 0.619488,-0.272112 0.05792,0.885808 z m 3.543215,3.913743 q -0.46316,0 -0.8308,-0.22 -0.36764,-0.22 -0.581855,-0.590536 -0.214208,-0.370536 -0.214208,-0.816328 0,-0.42264 0.182368,-0.76712 0.182375,-0.34448 0.529743,-0.581848 l 0.26632,0.37632 q -0.231584,0.162104 -0.373424,0.419744 -0.141848,0.257632 -0.141848,0.54132 0,0.486328 0.332904,0.830808 0.332896,0.34448 0.8308,0.34448 0.480536,0 0.82212,-0.332904 0.341584,-0.332896 0.341584,-0.842384 0,-0.312632 -0.167896,-0.602112 l 0.39948,-0.22 q 0.231584,0.393688 0.231584,0.833696 0,0.46316 -0.220008,0.833696 -0.22,0.370536 -0.58764,0.581856 -0.367632,0.211312 -0.819224,0.211312 z m -4.110591,-4.429015 q -0.4458,0 -0.816328,-0.220008 -0.370535,-0.22 -0.590535,-0.590536 -0.220008,-0.370528 -0.220008,-0.816329 0,-0.451583 0.220008,-0.819223 0.22,-0.36764 0.590535,-0.58764 0.370528,-0.22 0.816328,-0.22 0.451584,0 0.819224,0.22 0.36764,0.22 0.58764,0.58764 0.220008,0.36764 0.220008,0.819223 0,0.445801 -0.220008,0.816329 -0.22,0.370536 -0.58764,0.590536 -0.36764,0.220008 -0.819224,0.220008 z m 0,-0.463168 q 0.480536,0 0.82212,-0.34448 0.341584,-0.34448 0.341584,-0.819225 0,-0.480535 -0.341584,-0.822119 -0.341584,-0.341584 -0.82212,-0.341584 -0.474744,0 -0.819224,0.341584 -0.344479,0.341584 -0.344479,0.822119 0,0.474745 0.344479,0.819225 0.34448,0.34448 0.819224,0.34448 z m 2.501096,1.719503 q -0.4458,0 -0.816328,-0.220008 -0.370536,-0.219999 -0.590536,-0.590535 -0.220008,-0.370528 -0.220008,-0.816328 0,-0.451584 0.220008,-0.819224 0.22,-0.367633 0.590536,-0.587641 0.370528,-0.22 0.816328,-0.22 0.451583,0 0.819223,0.22 0.367632,0.220008 0.58764,0.587641 0.22,0.36764 0.22,0.819224 0,0.4458 -0.22,0.816328 -0.220008,0.370536 -0.58764,0.590535 -0.36764,0.220008 -0.819223,0.220008 z m 0,-0.463167 q 0.480535,0 0.822119,-0.34448 0.341584,-0.34448 0.341584,-0.819224 0,-0.480536 -0.341584,-0.82212 -0.341584,-0.341584 -0.822119,-0.341584 -0.474744,0 -0.819224,0.341584 -0.34448,0.341584 -0.34448,0.82212 0,0.474744 0.34448,0.819224 0.34448,0.34448 0.819224,0.34448 z m 2.014767,1.800559 q -0.463168,0 -0.833696,-0.21132 -0.370536,-0.21132 -0.581856,-0.581856 -0.21132,-0.370528 -0.21132,-0.833696 l 0.46896,-0.0116 q 0,0.306848 0.162104,0.570272 0.162112,0.263424 0.425536,0.425528 0.263424,0.162112 0.570272,0.162112 0.306848,0 0.570272,-0.162112 0.263424,-0.162104 0.425536,-0.425528 0.162104,-0.263424 0.162104,-0.570272 0,-0.283687 -0.150528,-0.550007 -0.150528,-0.26632 -0.405272,-0.4458 l 0.254744,-0.387904 q 0.382112,0.254744 0.576064,0.6108 0.193952,0.356064 0.193952,0.784487 0,0.463168 -0.21132,0.833696 -0.21132,0.370536 -0.57896,0.581856 -0.36764,0.21132 -0.836592,0.21132 z m -3.143735,-3.861647 v -0.839488 l 0.729488,0.358959 z m 5.117974,5.586935 q -0.422631,0 -0.775799,-0.191056 -0.35316,-0.191056 -0.590536,-0.5558 l 0.382112,-0.254736 q 0.167896,0.24316 0.413952,0.390792 0.246056,0.14764 0.558695,0.14764 0.474744,0 0.825016,-0.321328 0.350264,-0.32132 0.350264,-0.842376 0,-0.376328 -0.202632,-0.668696 -0.202632,-0.292376 -0.57896,-0.419744 l 0.15632,-0.440008 q 0.497904,0.162104 0.793176,0.584744 0.295264,0.42264 0.295264,0.943704 0,0.457376 -0.217104,0.825008 -0.217112,0.36764 -0.584752,0.584752 -0.36764,0.217104 -0.825016,0.217104 z m -2.813727,-5.581143 -0.874224,-0.526849 0.833696,-0.509487 z M 39.235911,13.26391 q -0.445792,0 -0.816328,-0.220008 -0.370528,-0.22 -0.590536,-0.590535 -0.22,-0.370536 -0.22,-0.816328 0,-0.451584 0.22,-0.819224 0.220008,-0.36764 0.590536,-0.58764 0.370536,-0.220008 0.816328,-0.220008 0.451591,0 0.819223,0.220008 0.36764,0.22 0.587648,0.58764 0.22,0.36764 0.22,0.819224 0,0.445792 -0.22,0.816328 -0.220008,0.370535 -0.587648,0.590535 -0.367632,0.220008 -0.819223,0.220008 z m 0,-0.463168 q 0.480535,0 0.822119,-0.344479 0.341584,-0.34448 0.341584,-0.819224 0,-0.480536 -0.341584,-0.82212 -0.341584,-0.341584 -0.822119,-0.341584 -0.474744,0 -0.819224,0.341584 -0.34448,0.341584 -0.34448,0.82212 0,0.474744 0.34448,0.819224 0.34448,0.344479 0.819224,0.344479 z m 3.774799,3.965856 q -0.156312,0 -0.292368,-0.02896 -0.136056,-0.02896 -0.269216,-0.07528 l 0.09842,-0.434216 q 0.208424,0.07528 0.42264,0.07528 0.515263,0 0.862639,-0.341584 0.347376,-0.341583 0.347376,-0.822119 0,-0.497904 -0.350272,-0.839488 -0.350264,-0.341584 -0.807639,-0.341584 l 0.04056,-0.4458 q 0.428423,0 0.787375,0.217112 0.35896,0.217112 0.576064,0.584744 0.217112,0.36764 0.217112,0.825016 0,0.4458 -0.220008,0.816327 -0.22,0.370536 -0.590536,0.590536 -0.370528,0.220008 -0.822119,0.220008 z m -1.123176,-1.956879 q -0.445792,0 -0.816328,-0.22 -0.370528,-0.22 -0.590536,-0.590536 -0.22,-0.370536 -0.22,-0.816329 0,-0.451591 0.22,-0.819223 0.220008,-0.36764 0.590536,-0.58764 0.370536,-0.220008 0.816328,-0.220008 0.451592,0 0.819224,0.220008 0.36764,0.22 0.587647,0.58764 0.22,0.367632 0.22,0.819223 0,0.445793 -0.22,0.816329 -0.220007,0.370536 -0.587647,0.590536 -0.367632,0.22 -0.819224,0.22 z m 0,-0.46316 q 0.480536,0 0.82212,-0.34448 0.341584,-0.34448 0.341584,-0.819225 0,-0.480535 -0.341584,-0.822119 -0.341584,-0.341584 -0.82212,-0.341584 -0.474744,0 -0.819224,0.341584 -0.34448,0.341584 -0.34448,0.822119 0,0.474745 0.34448,0.819225 0.34448,0.34448 0.819224,0.34448 z m 0.376328,-2.391096 -0.497904,-0.196848 q 0.214208,-0.09842 0.37632,-0.370528 0.162104,-0.272112 0.162104,-0.590536 0,-0.50948 -0.33,-0.839488 -0.330008,-0.330008 -0.827912,-0.330008 -0.318424,0 -0.616584,0.193952 -0.298168,0.193952 -0.5008,0.541328 l -0.405271,-0.220008 q 0.254743,-0.451584 0.668695,-0.715008 0.413952,-0.263424 0.859752,-0.263424 0.457376,0 0.82212,0.214208 0.364744,0.214216 0.578952,0.581856 0.214216,0.36764 0.214216,0.825016 0,0.35316 -0.130264,0.645536 -0.130264,0.292368 -0.373424,0.523952 z"
       id="path1-4"
       style="stroke-width:0.264583;fill:#a36ef2;fill-opacity:1" /></g></svg>
